# xmcd CD database file
#
# Track frame offsets:
#	150
#	11782
#	18667
#	35765
#	46637
#	56027
#	66881
#	78983
#	86641
#	99362
#	109833
#	124090
#	139782
#	152154
#
# Disc length: 3776 seconds
#
# Revision: 0
# Processed by: cddbd v1.5.2PL0 Copyright (c) Steve Scherf et al.
# Submitted via: CDex 1.51
#
DISCID=b70ebe0e
DTITLE=Agoskodo Teliverek - Agoskodo Teliverek
DYEAR=2006
DGENRE=Jazz
TTITLE0=Valeria Lobelia Bluebell
TTITLE1=Liselotte Pulver
TTITLE2=Milk and Tomato Puree
TTITLE3=Heinrich the Eminent Cartographer
TTITLE4=Stupid Girl
TTITLE5=Blood Club
TTITLE6=Squirrel Staring at a Beetle
TTITLE7=Shout Outs
TTITLE8=Popeye Acidking
TTITLE9=A Rainbow in my Room
TTITLE10=Copass
TTITLE11=Pitch Tonnes Grunge Slabs
TTITLE12=Bodega Bay
TTITLE13=The Girl With the Wax Ball
EXTD=YEAR: 2006
EXTT0=
EXTT1=
EXTT2=
EXTT3=
EXTT4=
EXTT5=
EXTT6=
EXTT7=
EXTT8=
EXTT9=
EXTT10=
EXTT11=
EXTT12=
EXTT13=
PLAYORDER=
